<?xml version="1.0" encoding="UTF-8"?>
<svg width="512pt" height="512pt" version="1.1" viewBox="0 0 512 512" xmlns="http://www.w3.org/2000/svg">
 <defs>
  <clipPath id="a">
   <path d="m94.781 135h321.22v238h-321.22z"/>
  </clipPath>
 </defs>
 <g clip-path="url(#a)">
  <path d="m157.41 176.53c8.4922-8.7188 18.168-17.531 29.883-19.891l101.41-19.801c3.8828-1.0859 7.9219-1.4844 11.941-1.1836 3.5391 0.74219 6.9414 2.0273 10.082 3.8164l67.168 33.922c2.1016 0.91016 4.0234 2.1875 5.6758 3.7695 1.7422 2.1602 2.9961 4.6719 3.6797 7.3594l27.25 82.516c2.7695 8.4492-2.4531 17.305-7.4961 24.66l-38.055 55.676c-1.7344 3.0117-4.125 5.5898-6.9961 7.5391-2.5312 1.2383-5.2734 1.9922-8.082 2.2266-40.902 6.0547-81.957 11.02-123.16 14.895-5.1289 0.78125-10.355 0.64453-15.438-0.40625-4.3008-1.4023-8.3594-3.4531-12.035-6.0859-42.781-27.25-87.922-57.586-107.81-104.45-1.8633-4.5391 0.90625-9.3086 3.6328-13.305 17.391-25.367 36.914-49.207 58.355-71.254zm207.5 67.258c-4.5938 22.93-0.066406 46.75 12.625 66.395 15.621-11.719 17.801-34.695 13.172-53.68-4.6328-18.984-14.535-36.332-18.168-55.543-2.043-10.262-12.352-16.395-21.66-21.207l-44.551-23.07c-2.0078-1.2227-4.2539-2-6.5859-2.2695-4.9961 0-9.082 3.9961-12.172 7.7656-12.75 14.773-27.047 28.141-42.645 39.871-2.8125 2.0898-7.6719 3.7266-9.082 0.5l44.371-46.41c0.71484-0.5625 1.1445-1.4102 1.1797-2.3164-0.27344-1.5469-2.4062-1.6797-3.9062-1.4531l-36.332 5.4023c-16.117 1.6719-31.965 5.332-47.184 10.898-34.016 14.172-56.996 45.824-76.93 76.797l73.613-14.441c9.0859-1.8164 18.801-3.9961 24.75-11.035 2.2266-2.6367 4.0898-6.043 7.4492-6.9492 3.3594-0.91016 7.2656 3.8164 4.543 5.7656-1.6289 1.5156-2.5547 3.6367-2.5547 5.8594 0 2.2227 0.92578 4.3477 2.5547 5.8594 3.4805 2.8242 7.7109 4.5781 12.168 5.0391l100.46 20.164c8.4453 1.7266 14.352-8.3984 15.852-16.895 1.4961-8.4922 2.7227-18.801 10.488-22.703 3.8164 8.5352 0.54688 18.164-1.3164 27.473zm-96.73 48 57.855-27.246c-39.625-4.1602-78.812-11.758-117.12-22.707-8.1445-1.5664-16.559-1.0195-24.434 1.5898l-56.359 13.621c-2.168 0.22266-4.1523 1.3242-5.4922 3.043-0.69141 1.7539-0.69141 3.6992 0 5.4531 6.2188 24.523 27.973 41.324 48.32 56.312l44.551 32.742c0.80469 0.72656 1.8242 1.1758 2.9062 1.2734 1.7695 0 2.9062-1.8203 3.6797-3.4062 7.8086-16.215 11.398-35.289 24.566-47.551 6.4766-5.4414 13.754-9.8516 21.57-13.078zm2.7695 10.902c-6.0586 3.0391-11.668 6.9062-16.668 11.488-9.7617 9.8086-13.125 24.07-16.121 37.559-0.5 2.2227-0.67969 5.0859 1.2734 6.1758 0.98828 0.41797 2.0781 0.52734 3.1328 0.31641l78.836-7.8555c16.262-1.5898 34.336-4.1797 44.461-16.984 4.2695-5.4062 6.4961-13.625 2.543-19.074-7.25-10.262-12.801-21.625-16.438-33.652-2-6.5859-5.1797-14.852-12.035-14.941-2.6992 0.20312-5.3008 1.1094-7.5391 2.6328z" fill="#6269ff" fill-rule="evenodd"/>
 </g>
</svg>
